<?xml version="1.0" standalone="no"?>
<!DOCTYPE svg PUBLIC "-//W3C//DTD SVG 1.1//EN" "http://www.w3.org/Graphics/SVG/1.1/DTD/svg11.dtd" >
<!--
2013-9-30: Created.
-->
<svg>
<metadata>
Created by iconfont
</metadata>
<defs>

<font id="iconfont" horiz-adv-x="1024" >
  <font-face
    font-family="iconfont"
    font-weight="500"
    font-stretch="normal"
    units-per-em="1024"
    ascent="896"
    descent="-128"
  />
    <missing-glyph />
    
    <glyph glyph-name="x" unicode="x" horiz-adv-x="1001"
d="M281 543q-27 -1 -53 -1h-83q-18 0 -36.5 -6t-32.5 -18.5t-23 -32t-9 -45.5v-76h912v41q0 16 -0.5 30t-0.5 18q0 13 -5 29t-17 29.5t-31.5 22.5t-49.5 9h-133v-97h-438v97zM955 310v-52q0 -23 0.5 -52t0.5 -58t-10.5 -47.5t-26 -30t-33 -16t-31.5 -4.5q-14 -1 -29.5 -0.5
t-29.5 0.5h-32l-45 128h-439l-44 -128h-29h-34q-20 0 -45 1q-25 0 -41 9.5t-25.5 23t-13.5 29.5t-4 30v167h911zM163 247q-12 0 -21 -8.5t-9 -21.5t9 -21.5t21 -8.5q13 0 22 8.5t9 21.5t-9 21.5t-22 8.5zM316 123q-8 -26 -14 -48q-5 -19 -10.5 -37t-7.5 -25t-3 -15t1 -14.5
t9.5 -10.5t21.5 -4h37h67h81h80h64h36q23 0 34 12t2 38q-5 13 -9.5 30.5t-9.5 34.5q-5 19 -11 39h-368zM336 498v228q0 11 2.5 23t10 21.5t20.5 15.5t34 6h188q31 0 51.5 -14.5t20.5 -52.5v-227h-327z" />
    

    
    <glyph glyph-name="anzhuo" unicode="&#58888;" d="M632.198 658.019c-21.304 0-38.635-17.112-38.635-38.145 0-21.032 17.331-38.144 38.635-38.144s38.635 17.112 38.635 38.144C670.833 640.907 653.502 658.019 632.198 658.019zM390.821 658.019c-21.303 0-38.635-17.112-38.635-38.145 0-21.032 17.332-38.144 38.635-38.144s38.635 17.112 38.635 38.144C429.456 640.907 412.124 658.019 390.821 658.019zM791.753 496.4c-1.479 20.163-6.876 60.24-26.413 102.106-23.703 50.793-60.379 88.255-109.071 111.444L697.1 758.948c3.03 3.79 1.346 9.718-4.006 14.097l-0.286 0.219c-2.62 1.873-5.654 2.991-8.114 2.991-2.171 0-4.063-0.792-5.623-2.354l-44.864-53.014c-35.864 13.628-77.037 20.536-122.451 20.536l-2.454 0c-44.536 0-85.042-6.667-120.465-19.823L345.295 773.16c-0.268 0.479-0.605 0.925-1.005 1.326-1.334 1.336-3.176 2.014-5.474 2.014-2.868 0-5.754-1.183-7.987-3.26-5.053-3.831-6.785-8.937-4.409-13.094l0.237-0.414 40.582-49.008c-48.502-22.828-85.062-60.306-108.74-111.5-20.455-44.223-25.175-86.667-26.254-102.861l-0.392-5.887 560.334 0L791.753 496.4zM290.455 541.01c11.642 43.76 39.042 98.83 103.312 126.792l24.962 10.905c27.533 8.247 58.085 12.428 90.819 12.428l2.208 0c34.14 0 65.5-4.503 93.219-13.385l24.271-10.68c64.287-28.224 92.038-82.775 103.988-126.06L290.455 541.01zM884.86 501.761c-35.506 0-64.393-28.886-64.393-64.392l0-235.49c0-35.505 28.887-64.392 64.393-64.392 35.505 0 64.392 28.887 64.392 64.392l0 235.49C949.252 472.875 920.365 501.761 884.86 501.761zM870.755 437.369c0 7.778 6.327 14.105 14.105 14.105 7.776 0 14.104-6.327 14.104-14.105l0-235.49c0-7.776-6.328-14.104-14.104-14.104-7.778 0-14.105 6.328-14.105 14.104L870.755 437.369zM139.141 501.761c-35.506 0-64.392-28.886-64.392-64.392l0-235.49c0-35.505 28.886-64.392 64.392-64.392 35.505 0 64.392 28.887 64.392 64.392l0 235.49C203.532 472.875 174.646 501.761 139.141 501.761zM125.036 437.369c0 7.778 6.327 14.105 14.105 14.105 7.777 0 14.104-6.327 14.104-14.105l0-235.49c0-7.776-6.327-14.104-14.104-14.104-7.778 0-14.105 6.328-14.105 14.104L125.036 437.369zM231.742 49.792c0-19.569 15.697-42.315 35.936-42.315l62.185 0 0-119.585c0-35.506 28.886-64.392 64.392-64.392s64.392 28.886 64.392 64.392L458.647 7.477l109.16 0 0-119.585c0-18.821 9.028-36.984 24.774-49.847 10.642-9.245 25.344-14.545 40.353-14.545l1.021 0 0 0.002c35.303 0.282 62.88 28.463 62.88 64.39L696.835 7.477l64.639 0c20.154 0 31.03 21.676 31.03 42.069L792.504 462.513 231.742 462.513 231.742 49.792zM646.304 57.765l0-169.873c0-7.983-5.236-13.905-12.459-14.104l-0.911 0c-2.439 0-4.8 0.864-6.838 2.501l-1.135 1.137-1.217 0.302c-3.267 2.951-5.405 6.923-5.405 10.165L618.339 57.765 408.359 57.765l0-169.873c0-7.776-6.327-14.104-14.104-14.104-7.778 0-14.105 6.328-14.105 14.104L380.15 57.765l-98.121 0L282.029 412.226l459.941 0 0-354.461L646.304 57.765z"  horiz-adv-x="1024" />

    
    <glyph glyph-name="suo" unicode="&#58900;" d="M768.045025-50.823134 247.942487-50.823134c-23.871687 0-43.341111 19.469424-43.341111 43.341111L204.601376 300.76441c0 23.927969 19.469424 43.341111 43.341111 43.341111l520.101515 0c23.927969 0 43.341111-19.414165 43.341111-43.341111l0-308.246433C811.386136-31.35371 791.972994-50.823134 768.045025-50.823134L768.045025-50.823134zM247.942487 315.211447c-7.957229 0-14.447037-6.490831-14.447037-14.447037l0-308.246433c0-7.957229 6.489808-14.447037 14.447037-14.447037l520.101515 0c7.957229 0 14.447037 6.489808 14.447037 14.447037L782.491039 300.76441c0 7.956206-6.489808 14.447037-14.447037 14.447037L247.942487 315.211447 247.942487 315.211447zM693.382559 322.321378c-7.958252 0-14.447037 6.490831-14.447037 14.449084l0 79.516008c0 94.301759-76.694753 170.997536-170.941254 170.997536-94.245478 0-170.997536-76.694753-170.997536-170.997536l0-79.516008c0-7.958252-6.433526-14.449084-14.44806-14.449084-7.956206 0-14.447037 6.490831-14.447037 14.449084l0 79.516008c0 110.217241 89.674369 199.891609 199.891609 199.891609 110.217241 0 199.835328-89.674369 199.835328-199.891609l0-79.516008C707.829596 328.812209 701.395046 322.321378 693.382559 322.321378L693.382559 322.321378zM551.28012 50.307148l-86.684268 0 0 74.268494c-19.469424 13.939477-31.264051 36.343743-31.264051 60.441581 0 41.197284 33.521464 74.662467 74.662467 74.662467 41.139979 0 74.606185-33.465183 74.606185-74.662467 0-24.041556-11.793604-46.502104-31.320333-60.441581L551.28012 50.307148 551.28012 50.307148zM493.489926 79.201222l28.895097 0 0 61.796438 7.448646 4.119831c14.729469 8.126075 23.871687 23.420409 23.871687 39.899732 0 25.225521-20.48659 45.76737-45.712111 45.76737-25.226544 0-45.769416-20.540825-45.769416-45.76737 0-16.479323 9.143241-31.773657 23.815405-39.84345l7.448646-4.119831L493.487879 79.201222 493.489926 79.201222z"  horiz-adv-x="1024" />

    
    <glyph glyph-name="shezhi" unicode="&#58891;" d="M512.0015 389.045413c-49.176952 0-89.043913-39.866961-89.043913-89.043913 0-49.178952 39.866961-89.045913 89.043913-89.045913 49.177952 0 89.044913 39.866961 89.044913 89.045913C601.046413 349.178452 561.179452 389.045413 512.0015 389.045413zM512.0015 255.479543c-24.586976 0-44.521957 19.931981-44.521957 44.521957 0 24.586976 19.934981 44.521957 44.521957 44.521957 24.587976 0 44.521957-19.934981 44.521957-44.521957C556.523457 275.412524 536.589476 255.479543 512.0015 255.479543zM934.960087 433.56437l-21.866979 0c-6.384994 19.174981-14.195986 37.654963-23.139977 55.498946l15.568985 15.566985c34.774966 34.775966 34.774966 91.154911 0 125.927877l-62.961939 62.962939c-34.774966 34.772966-91.154911 34.772966-125.927877 0l-15.566985-15.568985c-17.841983 8.943991-36.325965 16.754984-55.498946 23.136977l0 21.869979C645.56737 772.136039 605.701408 812 556.523457 812l-89.043913 0c-49.176952 0-89.043913-39.863961-89.043913-89.040913l0-21.869979c-19.173981-6.384994-37.651963-14.192986-55.496946-23.136977l-15.566985 15.568985c-34.775966 34.772966-91.153911 34.772966-125.929877 0l-62.962939-62.962939c-34.771966-34.772966-34.771966-91.151911 0-125.927877l15.571985-15.568985c-8.943991-17.840983-16.754984-36.321965-23.138977-55.495946L89.043913 433.56537c-49.176952 0-89.043913-39.863961-89.043913-89.040913l0-89.043913c0-49.180952 39.866961-89.043913 89.043913-89.043913l21.867979 0c6.382994-19.173981 14.193986-37.654963 23.138977-55.498946l-15.571985-15.567985c-34.771966-34.772966-34.771966-91.153911 0-125.926877l62.962939-62.964939c34.775966-34.774966 91.153911-34.774966 125.929877 0l15.568985 15.568985c17.841983-8.942991 36.320965-16.753984 55.494946-23.135977l0-21.869979c0-49.176952 39.866961-89.040913 89.043913-89.040913l89.043913 0c49.177952 0 89.043913 39.863961 89.043913 89.040913l0 21.866979c19.172981 6.384994 37.653963 14.193986 55.498946 23.138977l15.566985-15.568985c34.772966-34.774966 91.153911-34.774966 125.927877 0l62.961939 62.964939c34.774966 34.772966 34.774966 91.153911 0 125.926877l-15.568985 15.567985c8.943991 17.841983 16.754984 36.324965 23.139977 55.498946l21.866979 0c49.176952 0 89.041913 39.862961 89.041913 89.043913l0 89.043913C1024.002 393.700408 984.137039 433.56437 934.960087 433.56437zM979.480043 255.479543c0-24.591976-19.932981-44.524957-44.520957-44.524957l-9.571991 0-45.765955 0c-9.332991-38.577962-25.109975-74.464927-45.246956-107.401895l32.765968-32.764968 6.900993-6.900993c17.385983-17.385983 17.385983-45.574955 0-62.963939l-62.962939-62.961939c-17.386983-17.388983-45.575955-17.388983-62.961939 0l-39.722961 39.719961c-32.923968-20.09098-68.790933-35.827965-107.346895-45.143956l0-45.923955 0-9.571991c0-24.586976-19.931981-44.521957-44.522957-44.521957l-89.043913 0c-24.586976 0-44.521957 19.934981-44.521957 44.521957l0 9.571991 0 45.923955c-38.553962 9.316991-74.422927 25.052976-107.346895 45.140956l-39.719961-39.716961c-17.389983-17.388983-45.578955-17.388983-62.964939 0l-62.962939 62.961939c-17.386983 17.388983-17.386983 45.577955 0 62.963939l6.903993 6.900993 32.763968 32.764968c-20.13998 32.937968-35.913965 68.824933-45.246956 107.401895L98.615904 210.954587l-9.571991 0c-24.589976 0-44.520957 19.931981-44.520957 44.524957l0 89.043913c0 24.586976 19.930981 44.521957 44.520957 44.521957l9.571991 0 45.765955 0c9.332991 38.577962 25.106975 74.461927 45.246956 107.399895l-32.765968 32.765968-6.900993 6.900993c-17.386983 17.386983-17.386983 45.578955 0 62.964939l62.962939 62.961939c17.385983 17.385983 45.574955 17.385983 62.964939 0l6.900993-6.900993 32.818968-32.818968c32.923968 20.09098 68.791933 35.824965 107.346895 45.140956L422.956587 713.387096l0 9.571991c0 24.589976 19.934981 44.518957 44.521957 44.518957l89.043913 0c24.590976 0 44.522957-19.928981 44.522957-44.518957l0-9.571991 0-45.926955c38.555962-9.316991 74.422927-25.049976 107.346895-45.140956l32.821968 32.817968 6.900993 6.901993c17.385983 17.385983 45.574955 17.385983 62.961939 0l62.962939-62.961939c17.385983-17.385983 17.385983-45.577955 0-62.964939l-6.900993-6.900993-32.765968-32.765968c20.13698-32.937968 35.914965-68.823933 45.246956-107.399895l45.765955 0 9.571991 0c24.586976 0 44.520957-19.934981 44.520957-44.521957L979.479043 255.479543zM512.0015 522.611283c-122.94288 0-222.608783-99.666903-222.608783-222.608783 0-122.94488 99.665903-222.608783 222.608783-222.608783 122.94488 0 222.608783 99.664903 222.608783 222.608783C734.610283 422.94338 634.94638 522.611283 512.0015 522.611283zM512.0015 121.911674c-98.355904 0-178.086826 79.733922-178.086826 178.089826 0 98.354904 79.730922 178.086826 178.086826 178.086826 98.354904 0 178.088826-79.732922 178.088826-178.086826C690.090326 201.645596 610.356404 121.911674 512.0015 121.911674z"  horiz-adv-x="1025" />

    
    <glyph glyph-name="icon3" unicode="&#58887;" d="M511.163 737.578c-242.734 0-439.51-196.776-439.51-439.51s196.776-439.51 439.51-439.51 439.51 196.776 439.51 439.51-196.776 439.51-439.51 439.51zM548.701 706.441c0 0 27.53 15.968 37.11 6.387 9.58-9.58 43.113 1.596 129.338-49.499 0 0-18.991-20.252-23.143-19.038 2.424-4.402 9.876-17.825 15.159-26.122 6.387-10.030 7.984-10.727 7.984-10.727l-6.387-9.58 6.387-1.596c-6.387 1.596-9.58-17.564-18.825-20.758-9.245-3.194 2.857-20.758-0.336-23.952-3.194-3.194 1.596-31.935 0-48.865-1.596-16.93-7.984-2.231-15.968 0-7.984 2.231-20.758 7.349-21.851 12.139-1.093 4.79-3.697 19.161-0.504 27.145 3.194 7.984-9.58 15.968-15.968 21.823-6.387 5.855-31.935-1.065-36.725 0-4.79 1.065-7.984 14.902-7.984 27.676s22.355-1.596 34.937 0c12.582 1.596 14.564 33.431 14.564 33.431l-0.723 27.061c-5.162 2.064-6.005 4.74 2.32 8.168 0 0-27.145 6.387-33.532-7.984-6.387-14.371-9.58-12.976-11.178-27.246-1.596-14.27-26.613-1.698-32.467 0-5.854 1.698-21.823 20.859-21.823 20.859 4.79 11.178 7.984 19.161 7.984 19.161l-8.369 19.159v22.354zM296.797 557.942c2.709 3.614 20.758 35.129 43.113 25.548 22.355-9.58 36.725 11.178 36.725 11.178s32.823 33.532 34.774 28.742c0.715-1.755 1.429-3.506 1.951-4.79-1.951 4.79 27.145 12.774 30.338-3.194 3.194-15.968 22.355-24.002 22.355-24.002s-11.178-19.111-7.984-33.482c3.194-14.371 14.371-17.564 7.984-30.339-6.387-12.774-19.161-17.564-22.355-23.952-3.194-6.387-29.452 20.758-32.29 30.339-2.839 9.58-16.868 19.161-29.015 15.968-12.147-3.194-44.082-11.178-50.468-7.984-6.386 3.194-42.609 5.985-35.128 15.968zM724.73 88.493c-12.774-33.532-43.113-91.016-59.081-106.984s-35.129-46.307-49.499-57.483c-14.371-11.178-14.371-31.935-31.935-30.339-17.564 1.596-38.323 51.097-33.532 63.871 4.79 12.774-87.822 35.129-87.822 35.129s-39.919 4.79-47.903 81.435c-1.421 13.641-2.334 23.32-2.879 30.043-11.998 5.302-59.060 24.782-88.137 17.86-33.532-7.984-41.516 10.654-70.258 14.908l-49.499 45.769c0 0-81.435 94.21-71.855 110.177 9.58 15.968 9.58 59.081 11.178 68.661 1.596 9.58-12.744 70.258-11.961 78.242 0.784 7.984-11.99 38.323-11.99 38.323s30.339 63.871 35.129 63.871 22.355-54.289 39.919-55.887c17.564-1.596 65.467 1.596 72.653 9.58 7.186 7.984 13.572 17.564 21.556 17.564 7.984 0 7.984 4.79 22.355-1.596 14.371-6.387 30.339-15.968 36.725-25.548 6.387-9.58-4.79-28.742 28.742-28.742s33.532 7.984 38.323-14.371c4.79-22.355 10.467-71.855-3.548-75.048-14.016-3.194-55.532-51.805-52.338-67.418 3.194-15.614 3.194-39.565-3.194-53.935-6.387-14.371-11.178-19.161-35.129-17.564-23.952 1.596-44.2 14.371-50.842-4.79-6.642-19.161-19.349-62.328 2.939-57.969 0 0 35.129 10.692 47.903 0 12.774-10.693 94.21-45.821 94.21-45.821s73.451 79.838 188.418 28.742l19.161-12.774 31.935 6.943c0 0 41.516 12.218 55.887 9.025 14.371-3.194 14.371-3.194 14.371-3.194v6.387c-0.002-0.002 12.772-33.534-0.002-67.065zM911.552 270.524c0 0-9.58 14.371-9.58 29.487s-11.178 13.626-11.178 32.787c0 19.161-14.371 12.774-23.952 25.548-9.58 12.774-14.371-4.79-22.355-6.387-7.984-1.596-6.387-14.371-14.371-29.54-7.984-15.169-28.742-24.75-35.129-21.911-6.387 2.84-30.339 24.306-31.935 29.097-1.596 4.79-33.532 31.935-32.646 38.323 0.887 6.387-8.871 39.919-15.257 55.887-6.387 15.968 0 78.876 0 78.876-9.58 5.425 87.822 45.672 75.048 50.462-12.774 4.79-19.161 57.483-19.161 57.483s0 0 46.484-23.952c46.484-23.952 105.209-213.967 105.209-213.967v-54.29l-11.177-47.902z"  horiz-adv-x="1024" />

    
    <glyph glyph-name="iconfontqiye" unicode="&#58920;" d="M258.143315 623.333924l113.742531 0 0-84.068697L258.143315 539.265226 258.143315 623.333924 258.143315 623.333924zM427.930279 623.333924l113.742531 0 0-84.068697L427.930279 539.265226 427.930279 623.333924 427.930279 623.333924 427.930279 623.333924zM258.143315 481.570199l113.742531 0 0-84.068697L258.143315 397.501502 258.143315 481.570199 258.143315 481.570199zM427.930279 481.570199l113.742531 0 0-84.068697L427.930279 397.501502 427.930279 481.570199 427.930279 481.570199 427.930279 481.570199zM709.809181 481.570199l56.047504 0 0-84.068697-56.047504 0L709.809181 481.570199 709.809181 481.570199zM709.809181 341.455021l56.047504 0 0-84.068697-56.047504 0L709.809181 341.455021 709.809181 341.455021zM258.143315 341.455021l113.742531 0 0-84.068697L258.143315 257.386324 258.143315 341.455021 258.143315 341.455021zM427.930279 341.455021l113.742531 0 0-84.068697L427.930279 257.386324 427.930279 341.455021 427.930279 341.455021 427.930279 341.455021zM879.599216 85.947743 879.599216 595.313753l-225.833445 0L653.765771 765.098671 144.400784 765.098671l0-677.502381-28.022217 0 0-56.042387 791.240819 0 0 56.042387-28.021194 0L879.598192 85.947743zM200.448288 85.947743 200.448288 709.052191l395.622456 0 0-621.454878L200.448288 87.597313 200.448288 85.947743zM653.765771 85.947743 653.765771 539.266249l169.785941 0 0-451.668936L653.765771 87.597313 653.765771 85.947743zM653.765771 85.947743"  horiz-adv-x="1024" />

    
    <glyph glyph-name="zhankai" unicode="&#59000;" d="M928 704.003 96 704.003c-8.837 0-16-7.163-16-16l0-32.004c0-8.835 7.163-15.998 16-15.998l832 0c8.837 0 16 7.163 16 15.998l0 32.004C944 696.839 936.837 704.003 928 704.003zM928 416.003 96 416.003c-8.837 0-16-7.163-16-16l0-32.004c0-8.835 7.163-15.998 16-15.998l832 0c8.837 0 16 7.163 16 15.998l0 32.004C944 408.839 936.837 416.003 928 416.003zM928 127.003 96 127.003c-8.837 0-16-7.163-16-16l0-32.004c0-8.835 7.163-15.998 16-15.998l832 0c8.837 0 16 7.163 16 15.998l0 32.004C944 119.839 936.837 127.003 928 127.003z"  horiz-adv-x="1024" />

    
    <glyph glyph-name="xinghao" unicode="&#58904;" d="M723.776 455.488 536.768 384l186.944-71.488c47.616-18.368 75.136-33.024 82.496-44.032 7.296-11.008 11.008-22.016 11.008-33.024 0-29.376-5.568-45.888-16.704-49.472-11.072-3.712-22.208-5.504-33.28-5.504-11.2 0-22.272 2.752-33.344 8.256-11.136 5.504-24.064 13.76-38.848 24.768L523.072 367.488l38.912-230.976c3.648-11.008 5.504-21.12 5.504-30.272 0-9.216 0-15.616 0-19.264 0-22.016-5.504-37.632-16.64-46.72C539.712 31.04 526.784 26.496 512 26.496c-11.328 0-23.552 3.648-36.8 11.008-13.248 7.296-19.776 23.808-19.776 49.472 0 7.296 0.96 14.656 2.816 22.016 1.92 7.296 2.816 16.512 2.816 27.52l45.184 230.976-175.232-153.984c-11.328-7.36-23.552-14.656-36.8-22.016-13.248-7.36-25.408-11.008-36.672-11.008-11.328 0-22.592 3.648-33.92 11.008-11.328 7.296-16.96 22.016-16.96 44.032 0 14.656 5.504 27.52 16.512 38.528s36.608 23.808 76.992 38.528L487.296 384 300.288 455.488C274.624 466.496 252.608 476.544 234.304 485.76c-18.368 9.152-27.52 24.768-27.52 46.72 0 18.304 5.504 32.064 16.576 41.28C234.496 582.848 245.504 587.52 256.704 587.52c11.072 0 23.104-2.752 36.096-8.256 12.864-5.504 24.896-13.76 36.096-24.768l172.032-153.984L462.08 631.488c0 11.008-0.96 20.096-2.816 27.52-1.92 7.296-2.752 14.656-2.752 22.016 0 14.656 5.504 28.352 16.64 41.28C484.288 735.04 497.28 741.504 512 741.504c22.656 0 37.568-7.36 45.248-22.016 7.488-14.656 11.328-27.52 11.328-38.528 0-7.36 0-15.616 0-24.768 0-9.216-1.92-17.408-5.696-24.768L517.696 400.512l175.168 153.984c15.04 14.656 28.16 23.808 39.552 27.52 11.328 3.648 22.592 5.504 33.92 5.504 15.04 0 27.264-5.504 36.672-16.512S817.28 547.136 817.28 532.48c0-14.656-3.712-26.624-11.008-35.776C798.848 487.552 771.392 473.792 723.776 455.488z"  horiz-adv-x="1024" />

    
    <glyph glyph-name="iconfonthaofang25" unicode="&#58912;" d="M940.64128 434.635776c-28.499968 28.514304-74.703872 28.514304-103.195648 0l-322.64192-322.93376L192.16896 434.635776c-28.4928 28.514304-74.69568 28.514304-103.195648 0l-1.046528-1.024c-28.4928-28.522496-28.4928-74.771456 0-103.293952l367.36512-367.731712c1.96608-2.564096 3.827712-5.211136 6.182912-7.550976l1.03936-1.069056c14.429184-14.429184 33.3824-21.4272 52.289536-21.240832 18.915328-0.186368 37.86752 6.810624 52.296704 21.240832l1.03936 1.069056c2.3552 2.33984 4.216832 4.98688 6.182912 7.550976l367.366144 367.731712c28.4928 28.522496 28.4928 74.771456 0 103.293952L940.64128 434.635776zM455.291904 336.427008c1.96608-2.593792 3.827712-5.226496 6.182912-7.596032l1.03936-1.024c14.429184-14.45888 33.3824-21.44256 52.289536-21.284864 18.915328-0.156672 37.86752 6.825984 52.296704 21.284864l1.03936 1.024c2.3552 2.369536 4.216832 5.00224 6.182912 7.596032l367.366144 367.694848c28.4928 28.529664 28.4928 74.763264 0 103.28576l-1.046528 1.061888c-28.499968 28.507136-74.703872 28.507136-103.195648 0l-322.64192-322.956288L192.16896 808.46848c-28.4928 28.507136-74.69568 28.507136-103.195648 0l-1.046528-1.061888c-28.4928-28.522496-28.4928-74.756096 0-103.28576L455.291904 336.427008z"  horiz-adv-x="1024" />

    
    <glyph glyph-name="user2" unicode="&#58882;" d="M858.672 16.27h-46.495c-8.949 116.189-85.35 213.587-190.508 254.485-33.419-15.875-70.725-25.043-110.277-25.043s-76.858 9.149-110.277 25.043c-105.155-40.899-181.537-138.297-190.508-254.485h-46.495c8.295 124.087 83.188 229.997 189.595 283.617-59.355 46.218-97.595 117.739-97.595 198.227 0 139.407 114.284 252.402 255.28 252.402s255.28-112.995 255.28-252.402c0-80.489-38.241-152.009-97.595-198.227 106.406-53.619 181.298-159.529 189.595-283.617zM720.257 498.113c0 114.046-93.508 206.501-208.863 206.501s-208.863-92.455-208.863-206.501 93.508-206.501 208.863-206.501 208.863 92.455 208.863 206.501z"  horiz-adv-x="1024" />

    
    <glyph glyph-name="shangsheng" unicode="&#58966;" d="M974.72 591.168c0 35.392-28.544 64-64 64l-256 0 115.712-115.584c-1.088-0.96-2.368-1.28-3.328-2.304L559.872 330.048 413.568 476.224C406.656 483.136 398.592 487.744 390.016 490.88c-0.64 0.256-1.344 0.128-1.984 0.384-6.912 2.24-13.952 3.84-21.184 3.712-7.744 0-15.424-1.6-22.72-4.416-0.192-0.064-0.448 0-0.64-0.128-8.256-3.264-16-8-22.592-14.784l-252.8-252.8c-0.512-0.512-1.088-1.024-1.536-1.536-24.576-25.344-23.872-65.792 1.536-90.496 25.408-24.512 65.92-23.744 90.496 1.536l208 208 147.392-147.136c12.608-11.712 28.672-17.344 44.672-17.152 16.64-0.384 33.344 5.44 46.208 17.856l252.8 252.8c0.512 0.512 1.088 1.088 1.472 1.536 0.512 0.448 0.64 1.024 1.024 1.472l114.624-114.688L974.784 591.168z"  horiz-adv-x="1024" />

    
    <glyph glyph-name="shangsheng1" unicode="&#59191;" d="M445.155 616.993v-645.749c0-19.241 15.436-34.839 35.136-34.839h68.976c19.405 0 35.136 15.579 35.136 34.839v656.499l206.75-203.214c6.875-6.859 18.191-6.685 25.279 0.399l48.781 48.782c7.086 7.086 7.278 18.402 0.4 25.262l-277.982 273.247c-0.976 2.13-2.348 4.137-4.111 5.902l-53.198 53.216c-4.188 4.188-9.724 6.164-15.116 5.902-4.957 0.251-10.070-1.559-13.931-5.41l-38.706-38.731-298.166-286.89c-7.517-7.499-7.308-19.838 0.423-27.567l53.198-53.216c7.751-7.732 20.085-7.924 27.567-0.422l199.555 191.993z"  horiz-adv-x="1024" />

    
    <glyph glyph-name="facebookicon" unicode="&#58990;" d="M422.586279 715.043659c0-59.609148 0-119.218295 0-180.956341-59.609148 0-119.218295 0-180.956341 0 0-59.609148 0-119.218295 0-180.956341 59.609148 0 119.218295 0 180.956341 0 0-159.66736 0-321.463617 0-481.130977 59.609148 0 119.218295 0 180.956341 0 0 159.66736 0 321.463617 0 481.130977 59.609148 0 119.218295 0 180.956341 0 0 59.609148 0 119.218295 0 180.956341-59.609148 0-119.218295 0-180.956341 0 0 40.449064 0 80.898129 0 119.218295 0 34.06237 27.675676 59.609148 59.609148 59.609148 40.449064 0 80.898129 0 119.218295 0 0 59.609148 0 119.218295 0 180.956341-59.609148 0-119.218295 0-180.956341 0C503.484407 896 422.586279 815.101871 422.586279 715.043659z"  horiz-adv-x="1024" />

    
    <glyph glyph-name="geren" unicode="&#58885;" d="M925.578544 895.584169 98.837287 895.584169c-54.344642 0-98.421456-44.058901-98.421456-98.421456l0-826.741256c0-54.362555 44.076814-98.421456 98.421456-98.421456l826.741256 0c54.362555 0 98.421456 44.058901 98.421456 98.421456L1024 797.162713C1024 851.523988 979.941099 895.584169 925.578544 895.584169zM964.94687-9.89502c0-32.601156-26.432782-59.05313-59.05313-59.05313L118.52209-68.94815c-32.603715 0-59.05313 26.451974-59.05313 59.05313L59.468961 777.47791c0 32.64082 26.449415 59.05313 59.05313 59.05313l787.37293 0c32.620348 0 59.05313-26.41231 59.05313-59.05313L964.94815-9.89502zM512.207916 757.255725c-135.888475 0-246.05428-110.147892-246.05428-246.05428 0-135.869283 110.165805-246.05428 246.05428-246.05428 135.887196 0 246.05428 110.184997 246.05428 246.05428C758.262196 647.109112 648.095111 757.255725 512.207916 757.255725zM512.207916 324.201573c-103.28604 0-187.001151 83.735582-187.001151 187.001151s83.715111 187.001151 187.001151 187.001151c103.264289 0 187.001151-83.735582 187.001151-187.001151S615.472204 324.201573 512.207916 324.201573zM512.207916 266.186102c141.324987 0 255.896042-114.568497 255.896042-255.896042l59.05313 0c0 173.928701-141.02047 314.949172-314.949172 314.949172-173.950453 0-314.949172-141.02047-314.949172-314.949172l59.05313 0C256.311873 151.617605 370.88037 266.186102 512.207916 266.186102z"  horiz-adv-x="1025" />

    
    <glyph glyph-name="bizhong" unicode="&#59074;" d="M276.79307 764.480594M521.179057-121.449817c-113.744577 0-220.086557 21.886473-299.435767 61.626569-74.767867 37.445844-120.089076 87.952144-129.796158 143.850246l-2.187829 0L89.759303 656.563746c0 64.464197 46.269813 123.362632 130.287345 165.846212C299.633265 862.652498 406.577972 884.816287 521.179057 884.816287c114.598015 0 221.531466-22.163789 301.103756-62.407352C906.279878 779.927401 952.538435 721.028966 952.538435 656.563746l0-205.41644-1.201361-323.878458 1.201361 0 0-20.466124c0-64.465221-46.258557-123.363655-130.255623-165.845189C742.710522-99.286028 635.777071-121.449817 521.179057-121.449817zM130.691551 116.286726l0.239454-11.362792c1.00898-47.894823 39.769772-93.405343 109.141746-128.147612 73.770144-36.945447 173.60185-57.292867 281.106306-57.292867 108.302635 0 208.676693 20.59813 282.630009 58.000995 61.995983 31.355125 99.150184 71.27123 106.461707 113.756857l1.335415 359.982748L911.606187 656.563746c0 48.235584-38.282908 94.16259-107.797122 129.319298-73.954339 37.402865-174.327374 58.000995-282.630009 58.000995-108.306728 0-208.691019-20.599154-282.661731-58.002019-69.532633-35.158754-107.825774-81.084737-107.825774-129.318274L130.691551 116.286726zM521.117658 451.858504c-114.26851 0-220.889853 19.550265-300.225759 55.048757-84.562954 37.838793-131.132596 90.842984-131.132596 149.252279l40.932248 0c0-19.885909 8.853645-39.491433 26.316366-58.273195 18.542308-19.942191 45.660946-37.981033 80.602759-53.616128 74.189699-33.197076 174.875866-51.479465 283.506982-51.479465 108.636233 0 209.332632 18.282389 283.539728 51.480488 34.95 15.635095 62.076824 33.67496 80.624249 53.618175 17.466814 18.780739 26.324552 38.386262 26.324552 58.270125l40.932248 0c0-58.407248-46.581921-111.412462-131.165342-149.252279C742.021837 471.408769 635.389238 451.858504 521.117658 451.858504zM520.410554 260.984269c-114.080222 0-220.528626 19.551288-299.735595 55.054897-84.422761 37.84084-130.915655 90.842984-130.915655 149.246139l40.932248 0c0-19.892049 8.839319-39.502689 26.273387-58.285474 18.507516-19.939121 45.576011-37.975916 80.452333-53.608965 74.055646-33.194006 174.557618-51.474348 282.993283-51.474348 105.804744 0 205.39188 18.293645 280.417621 51.512211 35.069727 15.527648 63.514569 34.122145 82.259492 53.773717 17.983583 18.853393 27.101241 38.395472 27.101241 58.08286l40.932248 0c0-58.086953-47.489594-111.103424-133.722584-149.284001C737.26858 280.523277 631.79641 260.984269 520.410554 260.984269zM521.117658 70.110033c-114.26851 0-220.889853 19.550265-300.225759 55.04978-84.562954 37.83777-131.132596 90.841961-131.132596 149.251256l40.932248 0c0-19.885909 8.853645-39.491433 26.316366-58.272171 18.542308-19.942191 45.660946-37.981033 80.602759-53.617152 74.189699-33.196053 174.875866-51.479465 283.506982-51.479465 108.636233 0 209.332632 18.282389 283.539728 51.480488 34.95 15.635095 62.076824 33.67496 80.624249 53.617152 17.466814 18.781762 26.324552 38.386262 26.324552 58.270125l40.932248 0c0-58.407248-46.581921-111.412462-131.165342-149.252279C742.021837 89.659275 635.389238 70.110033 521.117658 70.110033z"  horiz-adv-x="1024" />

    
    <glyph glyph-name="xiajiang" unicode="&#58922;" d="M148.653418 221.076365 459.398575-104.96288C463.558055-109.378328 468.741407-111.746032 473.604799-114.817648 476.804399-116.929384 479.492063-119.809024 483.011624-121.344832 500.993376-129.215848 521.342832-129.215848 539.388576-121.344832 542.908136-119.809024 545.531809-116.929384 548.731409-114.817648 553.594801-111.746032 558.778153-109.378328 563.001625-104.96288L873.746782 221.076365C902.223222 250.96063 902.223222 299.850519 873.746782 329.734783 845.270341 359.619048 798.620172 359.619048 770.143732 329.734783L584.438945 134.87914 584.438945 819.209599C584.438945 861.444319 551.483065 896 511.168104 896 470.917135 896 437.961255 861.444319 437.961255 819.209599L437.961255 134.87914 252.192476 329.734783C223.716035 359.619048 177.129859 359.619048 148.653418 329.734783 120.176978 299.850519 120.176978 250.96063 148.653418 221.076365Z"  horiz-adv-x="1024" />

    
    <glyph glyph-name="jiaoyi" unicode="&#58881;" d="M513.599-101.3c-28.607 0-57.24 2.613-85.689 7.838-14.788 2.717-24.575 16.906-21.858 31.697 2.717 14.788 16.906 24.574 31.697 21.858 48.519-8.911 97.632-9.243 145.98-0.984 49.845 8.516 97.484 25.963 141.598 51.857 0.068 0.038 0.135 0.077 0.202 0.117 50.854 29.265 94.402 67.576 129.429 113.865 33.811 44.68 58.313 94.882 72.835 149.212 14.468 54.138 18.286 109.619 11.349 164.9-7.179 57.182-25.618 111.65-54.805 161.893-27.577 47.277-60.927 86.414-101.932 119.611-11.686 9.46-13.491 26.602-4.029 38.29 9.46 11.685 26.601 13.492 38.29 4.030 46.217-37.416 83.746-81.425 114.728-134.538 32.904-56.638 53.678-118.026 61.773-182.503 7.819-62.29 3.523-124.782-12.771-185.739-16.347-61.163-43.941-117.69-82.017-168.008-39.432-52.11-88.409-95.221-145.578-128.139-49.785-29.207-103.581-48.893-159.899-58.515-26.293-4.493-52.783-6.74-79.299-6.74zM195.299 26.936c-6.653 0-13.321 2.424-18.57 7.323-35.765 33.381-63.385 68.979-84.423 108.81-32.715 56.461-53.394 117.678-61.466 181.97-7.819 62.29-3.523 124.78 12.769 185.739 16.346 61.164 43.942 117.69 82.017 168.008 39.455 52.145 88.473 95.277 145.69 128.205 80.273 46.472 172.636 68.628 267.012 64.017 15.018-0.731 26.598-13.501 25.867-28.517-0.734-15.018-13.511-26.597-28.517-25.866-83.891 4.091-165.897-15.546-237.141-56.792-50.916-29.301-94.463-67.612-129.49-113.901-33.811-44.68-58.313-94.883-72.835-149.213-14.469-54.137-18.286-109.617-11.348-164.899 7.178-57.182 25.618-111.649 54.804-161.89 0.191-0.329 0.374-0.66 0.551-0.996 18.182-34.548 42.277-65.58 73.659-94.869 10.993-10.26 11.586-27.486 1.326-38.478-5.359-5.743-12.626-8.65-19.909-8.65zM513.599-106.743c-28.871 0-58.033 2.667-86.673 7.929-8.583 1.576-16.038 6.401-20.993 13.585-4.954 7.183-6.815 15.866-5.239 24.449 1.577 8.583 6.401 16.038 13.585 20.991 7.183 4.955 15.866 6.815 24.449 5.24 47.886-8.797 96.361-9.123 144.078-0.97 49.19 8.403 96.213 25.624 139.758 51.186l0.291 0.166c50.173 28.875 93.172 66.701 127.755 112.406 33.383 44.116 57.578 93.686 71.915 147.333 14.285 53.455 18.056 108.234 11.205 162.817-7.087 56.455-25.293 110.231-54.11 159.835-27.241 46.701-60.166 85.34-100.651 118.114-14.003 11.335-16.17 31.948-4.835 45.948 11.335 14.002 31.947 16.168 45.948 4.836 46.742-37.841 84.687-82.334 116.006-136.027 33.269-57.266 54.286-119.361 62.471-184.57 7.906-62.991 3.562-126.185-12.911-187.822-16.531-61.848-44.434-119.006-82.936-169.887-39.873-52.694-89.4-96.288-147.203-129.573-50.317-29.518-104.734-49.431-161.699-59.164-26.473-4.524-53.464-6.817-80.214-6.817zM432.785-44.898c-4.373 0-8.64-1.32-12.319-3.855-4.789-3.303-8.005-8.274-9.056-13.995-1.052-5.721 0.189-11.511 3.491-16.297 3.303-4.79 8.273-8.005 13.994-9.057 27.993-5.143 56.492-7.749 84.704-7.749 26.139 0 52.51 2.241 78.381 6.661 55.663 9.51 108.844 28.972 158.061 57.844 56.573 32.575 105.003 75.205 143.992 126.729 37.65 49.755 64.935 105.649 81.1 166.13 16.108 60.275 20.356 122.067 12.626 183.655-8.002 63.749-28.551 124.459-61.078 180.446-30.639 52.524-67.748 96.047-113.446 133.042-9.33 7.556-23.074 6.109-30.631-3.226-7.556-9.334-6.11-23.075 3.225-30.631 41.528-33.619 75.288-73.23 103.211-121.1 29.562-50.882 48.233-106.043 55.503-163.958 7.028-55.983 3.162-112.164-11.489-166.984-14.702-55.014-39.517-105.85-73.753-151.092-35.468-46.874-79.562-85.666-131.053-115.3l-0.131-0.074c-44.717-26.247-92.978-43.921-143.469-52.546-48.981-8.364-98.737-8.031-147.88 0.994-1.33 0.243-2.662 0.365-3.983 0.365zM195.299 21.492c-8.297 0-16.213 3.121-22.286 8.788-36.192 33.78-64.152 69.813-85.474 110.155-33.051 57.067-53.945 118.948-62.102 183.928-7.907 62.988-3.562 126.182 12.91 187.823 16.527 61.844 44.43 119.003 82.936 169.887 39.9 52.729 89.464 96.347 147.316 129.639 81.201 47.010 174.557 69.399 269.995 64.738 17.993-0.877 31.915-16.228 31.039-34.221-0.854-17.452-15.325-31.077-32.611-31.078-0.535 0-1.070 0.012-1.611 0.038-82.844 4.043-163.816-15.348-234.145-56.065-50.272-28.93-93.291-66.77-127.875-112.475-33.383-44.113-57.578-93.683-71.915-147.333-14.287-53.452-18.057-108.232-11.204-162.815 7.086-56.452 25.291-110.227 54.11-159.833 0.232-0.401 0.452-0.796 0.662-1.198 17.892-33.994 41.625-64.554 72.553-93.421 6.379-5.954 10.057-14.037 10.36-22.757 0.3-8.722-2.814-17.038-8.767-23.416-6.155-6.601-14.862-10.381-23.89-10.381zM513.891 866.163c-84.868 0-167.318-21.893-239.848-63.883-56.591-32.568-105.061-75.219-144.074-126.778-37.652-49.758-64.937-105.651-81.098-166.129-16.108-60.278-20.357-122.069-12.626-183.655 7.979-63.56 28.426-124.093 60.773-179.918l0.103-0.187c20.75-39.288 48.006-74.41 83.323-107.373 4.050-3.777 9.323-5.858 14.856-5.858 6.107 0 11.763 2.458 15.926 6.918 3.97 4.255 6.045 9.797 5.845 15.614-0.2 5.813-2.653 11.202-6.906 15.171-31.837 29.711-56.29 61.217-74.762 96.315-0.143 0.273-0.291 0.54-0.444 0.804-29.555 50.871-48.227 106.031-55.495 163.941-7.029 55.986-3.164 112.168 11.488 166.984 14.705 55.016 39.518 105.851 73.754 151.093 35.469 46.876 79.583 85.681 131.114 115.335 72.137 41.763 155.18 61.654 240.121 57.511 11.979-0.588 22.23 8.697 22.816 20.693 0.585 11.995-8.698 22.23-20.693 22.814-8.071 0.395-16.138 0.59-24.172 0.59zM487 479.199l-93.759 100.010c-12.502 12.502-10.418 33.336 2.084 45.837v0c12.502 12.502 33.337 10.418 45.837-2.084l93.759-100.009c12.502-12.502 10.418-33.336-2.084-45.837v0c-14.586-10.418-33.336-10.418-45.837 2.083zM510.327 464.145c-10.049 0-19.74 3.765-27.178 11.204l-0.123 0.127-93.701 99.948c-14.117 14.194-13.162 38.159 2.147 53.473 14.186 14.186 38.203 13.252 53.537-2.083l0.122-0.127 93.702-99.948c14.117-14.194 13.161-38.159-2.147-53.473l-0.319-0.319-0.366-0.262c-8.001-5.716-16.971-8.541-25.674-8.541zM490.908 482.99c10.104-10.046 25.471-10.712 38.391-1.706 10.603 10.921 11.447 28.142 1.771 37.818l-0.123 0.127-93.697 99.944c-10.905 10.843-28.323 11.778-38.077 2.023-10.901-10.902-11.854-28.365-2.084-38.137l0.123-0.127 93.695-99.943zM491.167 522.954l100.009 93.759c12.502 12.502 33.336 10.418 45.837-2.084v0c10.418-12.502 10.418-31.254-2.083-43.754l-100.010-93.759c-12.502-12.502-33.337-12.502-45.837 0v0c-12.502 12.502-10.418 33.338 2.084 45.838zM512.001 462.295c-10.188 0-19.694 3.896-26.767 10.971-7.047 7.047-10.57 16.675-9.919 27.108 0.612 9.781 4.985 19.413 12.002 26.429l0.126 0.122 99.949 93.702c14.195 14.118 38.161 13.162 53.473-2.147l0.334-0.365c12.611-15.135 11.571-37.098-2.415-51.090l-0.127-0.123-99.948-93.701c-7.070-7.034-16.549-10.907-26.708-10.907zM494.956 519.043c-5.13-5.159-8.328-12.207-8.774-19.349-0.454-7.27 1.944-13.921 6.75-18.729 5.018-5.019 11.79-7.782 19.068-7.782 7.278 0 14.051 2.763 19.070 7.782l0.127 0.122 99.943 93.697c9.865 9.927 10.646 25.416 1.849 36.169-10.913 10.735-28.242 11.628-37.96 1.909l-0.127-0.122-99.945-93.697zM791.193 787.561l141.679-27.086c16.669-4.167 29.169-20.835 25.001-37.503v-2.084c-4.167-16.669-20.835-29.169-37.503-25.001l-141.679 27.086c-16.669 4.167-29.169 20.835-25.001 37.503v2.083c4.167 16.669 20.836 29.17 37.503 25.002zM926.951 691.806c-2.436 0-4.875 0.294-7.281 0.888l-141.771 27.109c-8.888 2.221-16.982 7.827-22.208 15.373-5.455 7.882-7.321 16.988-5.267 25.69v2.094l0.098 0.389c4.807 19.225 23.743 31.751 41.372 27.402l141.77-27.109c8.889-2.222 16.982-7.827 22.208-15.374 5.455-7.882 7.321-16.987 5.267-25.689v-2.094l-0.098-0.389c-2.221-8.888-7.827-16.982-15.373-22.208-5.792-4.010-12.249-6.079-18.719-6.080zM779.398 726.164l141.767-27.108c6.974-1.745 14.355-0.249 20.788 4.203 6.153 4.261 10.75 10.82 12.655 18.041v2.073l0.098 0.389c1.743 6.971 0.25 14.355-4.203 20.788-4.32 6.238-10.998 10.875-18.334 12.731l-141.767 27.108c-14.112 3.528-29.339-6.639-33.444-22.243v-2.074l-0.098-0.389c-1.743-6.972-0.25-14.355 4.204-20.788 4.32-6.238 10.998-10.874 18.334-12.731zM80.71 99.998l141.679-27.086c16.669-4.167 29.169-20.835 25.001-37.503v-2.084c-4.167-16.669-20.835-29.169-37.503-25.001l-141.678 27.085c-16.669 4.167-29.169 20.835-25.001 37.503v2.083c2.081 16.671 20.834 29.172 37.502 25.003zM216.327 4.266c-2.38 0-4.769 0.279-7.138 0.863l-141.77 27.109c-19.111 4.778-31.606 23.517-27.477 41.063l0.025 2.1c1.090 8.723 6.309 16.874 14.321 22.364 8.266 5.666 18.147 7.641 27.124 5.427l141.771-27.11c8.888-2.221 16.982-7.827 22.208-15.374 5.455-7.882 7.321-16.987 5.267-25.69v-2.093l-0.097-0.389c-4.16-16.641-18.909-28.265-34.234-28.266zM68.917 38.6l141.765-27.108c14.115-3.528 29.338 6.639 33.443 22.244v2.073l0.097 0.389c1.745 6.97 0.251 14.355-4.203 20.788-4.32 6.238-10.998 10.875-18.335 12.732l-141.766 27.109c-7.189 1.797-15.185 0.173-21.938-4.455-6.408-4.392-10.593-10.795-11.505-17.591v-2.275l-0.097-0.389c-3.549-14.201 6.766-29.531 22.539-33.521zM666.184 410.444h-306.278c-16.669 0-29.169 12.502-29.169 29.169v6.25c0 16.669 12.502 29.169 29.169 29.169h306.278c16.669 0 29.169-12.502 29.169-29.169v-6.25c-0.001-16.669-12.502-29.169-29.169-29.169zM666.184 404.998h-306.279c-19.733 0-34.614 14.88-34.614 34.614v6.249c0 19.734 14.88 34.614 34.614 34.614h306.279c19.734 0 34.614-14.88 34.614-34.614v-6.249c-0.001-19.733-14.88-34.614-34.614-34.614zM359.904 469.588c-13.747 0-23.724-9.978-23.724-23.724v-6.249c0-13.747 9.978-23.724 23.724-23.724h306.279c13.747 0 23.723 9.978 23.724 23.725v6.249c0 13.747-9.978 23.724-23.724 23.724l-306.279-0.001zM482.834 185.422v231.271c0 16.669 12.502 29.169 29.169 29.169h6.249c16.669 0 29.169-12.502 29.169-29.169v-233.355c0-16.669-12.502-29.169-29.169-29.169h-8.333c-14.586 2.084-27.085 14.585-27.085 31.254zM518.251 148.724l-9.103 0.056c-18.107 2.588-31.759 18.341-31.759 36.644v231.27c0 19.734 14.88 34.614 34.614 34.614h6.249c19.734 0 34.614-14.88 34.614-34.614v-233.355c0-19.734-14.879-34.614-34.614-34.614zM510.325 159.613h7.927c13.748 0 23.724 9.978 23.724 23.724v233.355c0 13.747-9.978 23.724-23.724 23.724h-6.249c-13.748 0-23.724-9.978-23.724-23.724v-231.271c0-12.794 9.451-23.825 22.047-25.807zM666.184 264.596h-306.278c-16.669 0-29.169 12.502-29.169 29.169v6.25c0 16.669 12.502 29.169 29.169 29.169h306.278c16.669 0 29.169-12.502 29.169-29.169v-6.25c-0.001-16.669-12.502-29.169-29.169-29.169zM666.184 259.149h-306.279c-19.733 0-34.614 14.88-34.614 34.614v6.25c0 19.734 14.88 34.614 34.614 34.614h306.279c19.734 0 34.614-14.88 34.614-34.614v-6.25c-0.001-19.733-14.88-34.614-34.614-34.614zM359.904 323.742c-13.747 0-23.724-9.978-23.724-23.724v-6.25c0-13.748 9.978-23.724 23.724-23.724h306.279c13.747 0 23.723 9.978 23.724 23.724v6.25c0 13.748-9.978 23.724-23.724 23.724h-306.279z"  horiz-adv-x="1024" />

    
    <glyph glyph-name="fuwuneirong" unicode="&#58886;" d="M868.501 662.215h-78.449v86.979c0 44.062-39.659 79.917-88.446 79.917h-546.108c-48.679 0-88.446-35.856-88.446-79.917v-563.492c0-44.060 39.659-79.917 88.446-79.917h78.341v55.579h-78.341c-17.82 0-32.814 11.137-32.814 24.338l-0 274.955v288.537c0 13.202 15.103 24.339 32.814 24.339h546.108c17.818 0 32.813-11.138 32.813-24.339v-86.979h-412.024c-48.678 0-88.447-35.857-88.447-79.917v-563.492c0-44.060 39.66-79.917 88.447-79.917h546.106c48.679 0 88.446 35.857 88.446 79.917l0 274.954v288.538c-0.001 44.060-39.66 79.917-88.446 79.917zM901.316 307.343v-288.537c0-13.202-15.104-24.339-32.815-24.339l-546.107-0c-17.82 0-32.814 11.138-32.814 24.339v563.492c0 13.202 15.104 24.339 32.814 24.339h546.106c17.82 0 32.815-11.138 32.815-24.339l-0-274.955zM372.919 440.991h333.683c15.322 0 27.818 12.386 27.818 27.816 0 15.321-12.387 27.817-27.818 27.817l-333.683 0c-15.321 0-27.817-12.496-27.817-27.817 0.001-15.428 12.497-27.816 27.817-27.816zM817.867 329.727h-444.948c-15.321 0-27.817-12.496-27.817-27.817 0-15.429 12.496-27.817 27.817-27.817h444.948c15.322 0 27.818 12.386 27.818 27.817 0 15.321-12.388 27.817-27.818 27.817zM817.867 162.831h-444.948c-15.321 0-27.817-12.496-27.817-27.817 0-15.429 12.496-27.817 27.817-27.817h444.948c15.322 0 27.818 12.386 27.818 27.817 0 15.321-12.388 27.817-27.818 27.817z"  horiz-adv-x="1024" />

    
    <glyph glyph-name="zhuanhuan" unicode="&#58954;" d="M99.119848 467.997912h828.014506a43.350032 43.350032 0 0 1 43.350032 43.350031 43.248882 43.248882 0 0 1-16.451337 33.957525 43.465632 43.465632 0 0 1-9.219107 8.756707L635.50424 771.130234a43.350032 43.350032 0 1 1-49.809186-70.964002l207.270952-145.461032H99.119848a43.350032 43.350032 0 0 1 0-86.707288zM927.134354 294.92291H99.119848a43.350032 43.350032 0 0 1-43.350032-43.350032 43.205532 43.205532 0 0 1 16.451337-33.9503c2.564877-3.272927 5.635504-6.242405 9.219107-8.756706l309.309701-217.075284a43.313907 43.313907 0 0 1 60.386594 10.584632 43.350032 43.350032 0 0 1-10.577407 60.386595L233.288196 208.222846h693.846158a43.350032 43.350032 0 0 1 0 86.700064z"  horiz-adv-x="1024" />

    
    <glyph glyph-name="xiangao" unicode="&#59179;" d="M744.389204 27.779033c-0.763818 0-1.555282 0.054266-2.3191 0.191466L107.092262 134.063449a14.027229 14.027229 0 0 0-9.086983 5.662086c-2.155279 3.015342-3.002032 6.766858-2.401011 10.424176l63.988738 382.869631a13.90641 13.90641 0 0 0 5.675396 9.072648c3.002032 2.141968 6.740237 2.974387 10.396532 2.401011l311.676836-52.105524c7.613611-1.268594 12.770922-8.472651 11.487993-16.086263-1.282928-7.599277-8.677428-12.756587-16.071928-11.474683l-297.896363 49.799735-59.404803-355.308686 607.472187-101.495704 32.117235 188.760427c1.337194 7.599277 8.705073 12.689011 16.127218 11.419393 7.613611-1.282928 12.715632-8.500296 11.433727-16.112884l-34.46398-202.485609c-1.174396-6.807814-7.068904-11.62417-13.753852-11.62417zM212.475659 116.654327c-0.763818 0-1.555282 0.054266-2.319101 0.191466-7.613611 1.268594-12.770922 8.472651-11.487993 16.086263 3.983938 23.849361-1.555282 47.821588-15.608108 67.495544-14.026205 19.688291-34.900155 32.717232-58.749516 36.70117-7.613611 1.268594-12.770922 8.472651-11.487993 16.086262 1.282928 7.599277 8.595517 12.797543 16.071928 11.474683 31.21724-5.211576 58.531428-22.266434 76.92348-48.025341s25.62273-57.126658 20.411154-88.342874c-1.146752-6.837506-7.06788-11.667173-13.753851-11.667173zM636.221863 48.06732c-0.873374 0-1.719103 0.081911-2.592477 0.232422-7.585966 1.419105-12.579455 8.718384-11.160351 16.30435 12.415633 66.445038 74.904379 109.135937 142.413234 97.456477 7.613611-1.337194 12.689011-8.567872 11.351817-16.168173-1.309549-7.626922-8.786984-12.55181-16.153839-11.365127-52.937943 9.346025-100.389908-22.975987-110.158798-75.053866-1.256307-6.712592-7.12317-11.406083-13.699586-11.406083zM173.619211 412.217256c-6.576415 0-13.179452 0.545731-19.783513 1.650503-7.613611 1.268594-12.770922 8.472651-11.487993 16.086262 1.282928 7.626922 8.595517 12.838498 16.071928 11.474683 24.013183-4.038204 47.834898 1.527637 67.5365 15.594797 19.673957 14.039516 32.717232 34.91449 36.701169 58.763851 1.282928 7.613611 8.541251 12.811877 16.071928 11.474683 7.613611-1.268594 12.770922-8.472651 11.487994-16.086263-5.211576-31.21724-22.294079-58.518118-48.052986-76.895835-20.301598-14.490025-44.095669-22.062681-68.545027-22.062681zM591.525173 419.16227c-88.957205 0-161.349993 72.393812-161.349993 161.364327 0 88.983826 72.393812 161.377638 161.349993 161.377638 88.983826 0 161.377638-72.393812 161.377638-161.377638 0-17.054858-2.646744-35.337354-7.258323-50.153999-2.292479-7.367879-10.178444-11.474683-17.491033-9.195514-7.367879 2.292479-11.487993 10.123154-9.195514 17.491033 3.820116 12.251812 6.00304 27.505655 6.003039 41.85848 0 73.580495-59.868623 133.435807-133.435807 133.435807s-133.408162-59.855312-133.408162-133.435807c0-73.567184 59.840978-133.421473 133.408162-133.421473 10.532708 0 21.91217 1.214328 31.189595 3.328651 7.585966 1.84197 15.035756-3.015342 16.727214-10.506087 1.719103-7.5317-2.974387-15.021422-10.506087-16.727214-11.406083-2.605788-24.69509-4.038204-37.410722-4.038204zM766.35564 229.718911c-88.983826 0-161.377638 72.393812-161.377638 161.364328 0 88.983826 72.393812 161.377638 161.377638 161.377637 88.957205 0 161.349993-72.393812 161.349993-161.377637 0-88.970515-72.393812-161.364327-161.349993-161.364328z m0 294.800135c-73.567184 0-133.435807-59.855312-133.435807-133.435807 0-73.567184 59.868623-133.421473 133.435807-133.421473s133.408162 59.855312 133.408162 133.421473c0 73.580495-59.842002 133.435807-133.408162 133.435807zM448.511943 174.953333c-4.775401 0-9.605068 0.45051-14.434736 1.364839-21.994081 4.147759-48.898715 21.666437-65.407842 42.582367-4.775401 6.043995-3.738205 14.830979 2.3191 19.619691 6.057306 4.775401 14.816645 3.751516 19.619691-2.319101 12.08799-15.308109 33.454429-29.552402 48.652983-32.430543 11.242261-2.101013 22.484522-0.340954 31.599149 5.021133 8.485962 4.993489 14.080471 12.55181 15.717663 21.284528 1.746748 9.250804-0.327643 23.739805-38.202185 43.031853-19.865423 10.601309-60.686707 32.376278-53.019854 73.103364 6.440239 33.93156 42.568032 55.638952 79.952133 48.598717 24.121714-4.542979 44.505223-20.411154 53.237942-41.39466 2.946742-7.122146-0.409554-15.308109-7.558322-18.269185-7.06788-2.946742-15.280465 0.409554-18.254851 7.545011-5.129665 12.387989-17.62721 21.84357-32.6087 24.667445-22.730254 4.283936-43.76905-7.558321-47.316812-26.318972-2.78292-14.790024 7.995521-26.891324 38.475562-43.141409 14.844289-7.558321 60.714352-30.916217 52.746477-72.993808-3.16483-16.76817-13.452829-31.053418-29.006672-40.194667-10.915641-6.426928-23.521718-9.756603-36.510726-9.756603zM430.011359 140.557954c-0.873374 0-1.746748 0.081911-2.619099 0.245732-7.585966 1.432416-12.579455 8.731694-11.133729 16.31766l49.444446 262.068569c1.419105 7.599277 8.813605 12.525189 16.317661 11.133729 7.585966-1.432416 12.579455-8.731694 11.133729-16.317661l-49.444447-262.068568c-1.256307-6.700306-7.122146-11.379462-13.698561-11.379461zM771.731038 304.241381c-17.545299 0-40.685107 9.482202-56.266594 23.071208-5.812597 5.062089-6.440239 13.889004-1.364839 19.701601 5.0754 5.825907 13.889004 6.453549 19.701601 1.36484 10.450798-9.072648 27.096101-16.194794 37.929832-16.194795 15.199578 0 27.559921 10.027933 27.559921 22.348345 0 3.738205 0 13.698562-31.489593 22.907387-15.608108 4.883933-51.600749 16.153839-51.600748 49.731134 0 27.723743 24.913178 50.290176 55.529396 50.290175 19.53778 0 37.847921-9.441247 47.780633-24.640824 4.202025-6.453549 2.401011-15.117667-4.065849-19.333003-6.384949-4.188715-15.062377-2.441966-19.346313 4.052539-4.829667 7.3945-14.162382 11.979458-24.367447 11.979458-15.198554 0-27.587566-10.027933-27.587566-22.348345 0-6.766858 3.847761-14.244293 31.76297-22.989297 12.497544-3.656294 51.327371-15.021422 51.327372-49.649224 0-27.724767-24.886557-50.291199-55.502776-50.291199zM771.731038 449.519446c-7.722143 0-13.970915 6.248772-13.970915 13.970915v19.851089c0 7.722143 6.248772 13.970915 13.970915 13.970915s13.970915-6.248772 13.970915-13.970915v-19.851089c0-7.722143-6.248772-13.970915-13.970915-13.970915zM771.731038 284.389268c-7.722143 0-13.970915 6.248772-13.970915 13.970916v19.851088c0 7.722143 6.248772 13.970915 13.970915 13.970916s13.970915-6.248772 13.970915-13.970916v-19.851088c0-7.722143-6.248772-13.970915-13.970915-13.970916zM594.308093 495.184731c-17.518678 0-40.658486 9.482202-56.266594 23.057898-5.812597 5.062089-6.440239 13.889004-1.364839 19.714912 5.047755 5.825907 13.862383 6.412594 19.701602 1.378149 10.450798-9.086982 27.096101-16.209129 37.929831-16.209128 15.199578 0 27.559921 10.027933 27.559922 22.348345 0 3.751516 0 13.711872-31.489593 22.921721-15.608108 4.898267-51.573104 16.168173-51.573104 49.731134 0 27.723743 24.886557 50.290176 55.502775 50.290175 19.510135 0 37.820276-9.441247 47.780633-24.62649 4.22967-6.453549 2.428656-15.117667-4.011583-19.346313-6.440239-4.21636-15.144288-2.441966-19.346313 4.011583-4.857312 7.422145-14.216648 12.020414-24.422737 12.020414-15.198554 0-27.559921-10.027933-27.559921-22.348345 0-6.766858 3.847761-14.244293 31.735326-22.989298 12.497544-3.656294 51.327371-15.008111 51.327371-49.662533 0-27.725791-24.885533-50.292223-55.502776-50.292224zM594.308093 640.476107c-7.722143 0-13.970915 6.248772-13.970915 13.970915V674.2848c0 7.722143 6.248772 13.970915 13.970915 13.970915s13.970915-6.248772 13.970916-13.970915v-19.837778c0.001024-7.722143-6.247748-13.970915-13.970916-13.970915zM594.308093 478.498472c-7.722143 0-13.970915 6.248772-13.970915 13.970915v10.955573c0 7.722143 6.248772 13.970915 13.970915 13.970916s13.970915-6.248772 13.970916-13.970916v-10.955573c0.001024-7.722143-6.247748-13.970915-13.970916-13.970915z"  horiz-adv-x="1024" />

    
    <glyph glyph-name="xiazai" unicode="&#59096;" d="M472.983 166.746c9.23-9.23 24.195-9.23 33.426 0l289.583 289.583c9.23 9.23 9.23 24.195 0 33.426-9.215 9.214-24.179 9.214-33.41 0L513.324 240.497V814.343c0 13.042-10.585 23.628-23.628 23.628s-23.628-10.585-23.628-23.628v-573.846L216.81 489.755c-9.23 9.214-24.195 9.214-33.41 0-9.23-9.23-9.23-24.195 0-33.426l289.583-289.583zM891.37 213.135c-13.044 0-23.629-10.585-23.629-23.628v-147.674c0-18.493-14.712-33.472-32.874-33.472H144.525c-18.162 0-32.875 14.98-32.875 33.472V181.632v7.876c0 13.043-10.585 23.629-23.628 23.629s-23.628-10.586-23.628-23.629v-165.395c0-34.795 28.211-63.008 63.008-63.008h724.587c34.796 0 63.008 28.212 63.008 63.008V181.632v7.876c0 13.042-10.585 23.627-23.628 23.627z"  horiz-adv-x="1024" />

    
    <glyph glyph-name="quanqiu" unicode="&#58883;" d="M512 895.872c-282.688 0-511.84-228.992-511.84-511.456 0-260.928 195.52-476.224 448.16-507.52 14.24-3.008 31.584-4.768 52.256-4.768 5.792 0 11.392 0.32 16.8 0.864 280.192 2.88 506.464 230.72 506.464 511.424 0 282.464-229.152 511.456-511.84 511.456zM431.296-77.44c-220.256 38.464-387.712 230.496-387.712 461.632 0 33.12 3.456 65.472 10.016 96.64 20.256-21.632 68-21.12 79.616 11.232 20.832-12.416 48.832-14.656 48.832-39.488 0-81.888 2.912-169.696 77.344-171.040 2.080 0 41.472-14.944 60.224-63.552 6.496-16.832 32.128 0 60.256 0 14.048 0 0-23.68 0-74.816 0-50.944 109.856-129.408 109.856-129.408-0.512-33.728 0.864-60.992 3.68-82.784-24.8 0.48-45.696-2.816-62.080-8.416zM628.064-70.144c-2.432 11.904-13.088 18.432-32.48 13.312 15.488 65.952 23.008 102.88 55.36 130.944 46.72 40.544 5.536 85.632-30.048 80.32-28.064-4.256-10.336 34.72-35.36 36.896-25.056 2.080-57.728 51.872-93.76 69.024-19.104 9.056-37.888 33.376-67.36 34.464-26.112 1.024-64.256-22.080-64.256-4.256 0 57.312-5.824 98.24-7.008 114.56-0.96 13.12-8.576 4.416 26.72 3.584 19.2-0.512 9.824 38.592 28.864 40.096 18.656 1.472 63.168-17.472 74.496-9.92 10.56 7.040 77.44-175.584 77.44-30.176 0 17.248-8.96 47.232 0 63.584 35.328 64.544 68.384 117.184 65.44 124.896-1.696 4.32-36.16 7.904-63.744-1.344-9.28-3.136 2.976-17.696-10.4-20.8-50.080-11.584-94.336 13.504-78.848 37.056 15.872 24.128 73.376 10.528 78.4 58.976 2.88 27.744 5.312 59.872 6.912 83.744 67.424-10.528 60 87.488-40.224 97.984 202.752-2.368 374.56-133.312 437.6-315.040-3.195 3.023-7.448 4.957-12.148 5.192-29.324 75.608-102.892 20.824-77.932-45.928-133.664-102.784-99.456-174.464-55.552-215.488 23.136-21.568 45.152-54.016 59.52-77.312-15.616-45.536 57.504-27.328 93.6 49.952-49.425-166.56-184.351-292.61-352.658-328.503zM941.024 476.48c6.164-27.607 9.695-59.314 9.695-91.847 0-2.619-0.023-5.233-0.068-7.842-2.13 36.599-7.753 70.471-16.572 103.029 7.041-19.213 7.169-10.989 6.945-3.341z"  horiz-adv-x="1024" />

    
    <glyph glyph-name="anzhuo1" unicode="&#58901;" d="M150.287059 591.149176A59.753412 59.753412 0 0 1 90.352941 531.5764710000001v-232.688942c0-32.948706 26.864941-59.632941 59.934118-59.632941 33.129412 0 59.994353 26.684235 59.994353 59.632941V531.5764710000001a59.753412 59.753412 0 0 1-59.994353 59.572705z m723.425882 0a59.753412 59.753412 0 0 1-59.994353-59.572705v-232.688942c0-32.948706 26.864941-59.632941 59.994353-59.632941s59.934118 26.684235 59.934118 59.632941V531.5764710000001a59.753412 59.753412 0 0 1-59.934118 59.572705zM246.362353 164.08094100000005c0-25.238588 20.901647-45.658353 46.742588-45.658353h53.428706v-129.505882c0-32.948706 26.804706-59.632941 59.934118-59.632941s59.994353 26.684235 59.994353 59.632941v129.505882h93.30447v-129.505882c0-32.948706 26.864941-59.632941 59.934118-59.632941 33.129412 0 59.994353 26.684235 59.994353 59.632941v129.505882h53.36847c25.840941 0 46.742588 20.48 46.742589 45.658353V589.402353H246.241882v-425.261177h0.120471zM638.494118 809.622588L687.766588 879.616c2.951529 4.096 2.228706 9.577412-1.566117 12.167529-3.855059 2.529882-9.336471 1.204706-12.227765-2.831058l-51.2-72.704A308.224 308.224 0 0 1 512 836.487529a307.802353 307.802353 0 0 1-110.712471-20.239058L350.087529 888.952471C347.196235 892.988235 341.654588 894.373647 337.859765 891.783529c-3.855059-2.590118-4.577882-8.011294-1.626353-12.167529L385.505882 809.622588c-78.305882-35.659294-133.360941-103.363765-140.348235-182.39247h533.624471c-7.047529 79.028706-62.042353 146.793412-140.348236 182.39247H638.494118z m-239.073883-110.230588a29.214118 29.214118 0 0 0-29.515294 28.912941c0 15.902118 13.251765 28.852706 29.515294 28.852706s29.515294-12.950588 29.515294-28.912941c0-15.902118-13.251765-28.792471-29.515294-28.792471z m228.773647 0a29.214118 29.214118 0 0 0-29.515294 28.912941c0 15.902118 13.251765 28.852706 29.515294 28.852706s29.515294-12.950588 29.515294-28.912941c0-15.902118-13.251765-28.792471-29.515294-28.792471z"  horiz-adv-x="1024" />

    
    <glyph glyph-name="pingguo" unicode="&#59116;" d="M883.662 545.309c-158.916-102.917-139.96-325.553 27.818-401.851-7.398-18.606-14.24-37.612-22.4-56.035-26.343-59.459-61.572-113.406-105.184-161.484-49.26-54.3-100.764-64.23-168.598-36.827-24.366 9.84-49.704 18.432-75.405 23.514-35.076 6.935-69.497-0.185-102.48-13.738-13.837-5.685-27.63-11.51-41.662-16.675-47.611-17.527-90.52-9.632-128.346 24.475-41.58 37.493-73.54 82.74-100.984 130.837-57.852 101.392-90.01 210.179-84.289 327.85 4.311 88.702 33.872 167.038 105.398 224.257 50.262 40.21 108.026 60.443 172.751 51.365 25.099-3.52 49.262-13.952 73.728-21.63 9.499-2.98 18.82-6.672 27.935-10.695 26.84-11.844 53.003-10.788 80.41-0.253 33.215 12.766 66.791 25.771 101.353 33.634 87.67 19.95 192.604-23.417 239.955-96.744zM698.312 891.256c14.433-112.556-88.634-241.69-202.002-233.157C468.846 751.354 591.141 893.035 698.312 891.256z"  horiz-adv-x="1024" />

    
    <glyph glyph-name="tuite1" unicode="&#58895;" d="M1023.976 701.055c-37.68-16.68-78.103-27.991-120.593-33.053 43.368 25.932 76.669 67.168 92.286 116.152-40.551-24.051-85.536-41.485-133.394-50.98-38.304 40.8-92.85 66.355-153.273 66.355-116.023 0-210.062-94.04-210.062-210.005 0-16.43 1.875-32.49 5.439-47.858-174.509 8.81-329.279 92.408-432.87 219.5-18.12-31.057-28.434-67.169-28.434-105.595 0-72.855 32.52-137.15 88.88-174.821-34.428 1.119-99.69 10.556-99.69 26.303v-2.623c0-101.724 77.008-186.633 173.045-205.943-17.62-4.811-33.909-7.37-53.09-7.37-13.565 0-25.547 1.375-38.42 3.812 26.744-83.476 104.848-144.149 196.758-145.895-71.85-56.298-162.172-89.913-260.574-89.913-17 0-33.538 1.062-49.973 2.937 92.976-59.548 203.388-94.347 322.041-94.347 386.324 0 597.606 320.033 597.606 597.57 0 9.125-0.168 18.184-0.603 27.18 41.051 29.616 76.607 66.61 104.786 108.723l0.135-0.129z"  horiz-adv-x="1024" />

    
    <glyph glyph-name="new" unicode="&#58889;" d="M78.696296 692.148148h866.607408c43.614815 0 78.696296-35.081481 78.696296-78.696296v-439.940741c0-43.614815-35.081481-78.696296-78.696296-78.696296H78.696296c-43.614815 0-78.696296 35.081481-78.696296 78.696296V613.451852c0 43.614815 35.081481 78.696296 78.696296 78.696296zM327.111111 346.074074L209.540741 511.051852H170.666667v-235.140741h38.874074V440.888889l117.57037-164.977778h38.874074V511.051852h-38.874074zM404.859259 511.051852V275.911111h155.496297v38.874074H443.733333v58.785185h116.622223v39.822223H443.733333v58.785185h116.622223v38.874074H443.733333zM814.459259 511.051852l-26.548148-156.444445-51.2 156.444445h-39.822222l-51.2-156.444445-26.548148 156.444445h-38.874074l38.874074-235.140741h38.874074l58.785185 176.355556 58.785185-176.355556h38.874074L853.333333 511.051852z"  horiz-adv-x="1024" />

    
    <glyph glyph-name="zhongguoguoqi" unicode="&#58890;" d="M67.79904 640.70144H855.3984v-492.60032H67.79904V640.70144zM215.3984 572.99968l18.80064-57.90208h60.99968l-49.30048-35.79904 18.80064-57.99936-49.30048 35.79904-49.30048-35.79904 18.80064 57.99936-49.30048 35.79904h60.99968l18.80064 57.90208z m158.80192 30.30016l-1.19808-19.99872 18.60096-7.3984-19.50208-5.00224-1.30048-19.99872-10.7008 16.9984-19.39968-5.00224 12.8 15.40096-10.7008 16.9984 18.60096-7.3984 12.8 15.40096z m68.39808-64.90112l-9.09824-17.89952 14.19776-14.19776-19.79904 3.2-9.20064-17.89952-3.0976 19.90144-19.79904 3.0976 17.89952 9.09824-3.0976 19.79904 14.10048-14.19776 17.8944 9.09824z m-20.50048-81.30048l6.09792-19.0976h20.10112l-16.19968-11.8016 6.09792-19.0976-16.19968 11.89888-16.19968-11.8016 6.20032 19.00032-16.19968 11.8016h20.10112l6.20032 19.0976z m-48-61.19936l-1.30048-19.99872 18.60096-7.3984-19.39968-5.00224-1.30048-19.99872-10.7008 16.9984-19.50208-5.00224 12.8 15.40096-10.7008 16.9984 18.69824-7.3984 12.80512 15.40096z"  horiz-adv-x="1024" />

    
    <glyph glyph-name="goumaijilu" unicode="&#58957;" d="M455.111111 839.111111h113.777778c17.066667 0 28.444444 11.377778 28.444444 28.444445s-11.377778 28.444444-28.444444 28.444444h-113.777778c-17.066667 0-28.444444-11.377778-28.444444-28.444444s11.377778-28.444444 28.444444-28.444445zM910.222222 896h-199.111111c-17.066667 0-28.444444-11.377778-28.444444-28.444444s11.377778-28.444444 28.444444-28.444445h199.111111c17.066667 0 28.444444-11.377778 28.444445-28.444444v-853.333334c0-17.066667-11.377778-28.444444-28.444445-28.444444H113.777778c-17.066667 0-28.444444 11.377778-28.444445 28.444444V810.666667c0 17.066667 11.377778 28.444444 28.444445 28.444444h199.111111c17.066667 0 28.444444 11.377778 28.444444 28.444445s-11.377778 28.444444-28.444444 28.444444H113.777778C65.422222 896 28.444444 859.022222 28.444444 810.666667v-853.333334c0-48.355556 36.977778-85.333333 85.333334-85.333333h796.444444c48.355556 0 85.333333 36.977778 85.333334 85.333333V810.666667c0 48.355556-36.977778 85.333333-85.333334 85.333333zM739.555556 440.888889H284.444444c-17.066667 0-28.444444-11.377778-28.444444-28.444445s11.377778-28.444444 28.444444-28.444444h455.111112c17.066667 0 28.444444 11.377778 28.444444 28.444444s-11.377778 28.444444-28.444444 28.444445zM739.555556 241.777778H284.444444c-17.066667 0-28.444444-11.377778-28.444444-28.444445s11.377778-28.444444 28.444444-28.444444h455.111112c17.066667 0 28.444444 11.377778 28.444444 28.444444s-11.377778 28.444444-28.444444 28.444445zM739.555556 640H284.444444c-17.066667 0-28.444444-11.377778-28.444444-28.444444s11.377778-28.444444 28.444444-28.444445h455.111112c17.066667 0 28.444444 11.377778 28.444444 28.444445s-11.377778 28.444444-28.444444 28.444444z"  horiz-adv-x="1024" />

    
    <glyph glyph-name="changjiantou" unicode="&#58884;" d="M18.204 401.636l917.049 0 0-35.2711-917.049 0 0 35.2711ZM829.44 436.906L1005.79 384 829.44 331.09400000000005Z"  horiz-adv-x="1024" />

    
    <glyph glyph-name="icon" unicode="&#58880;" d="M512.07440346 320.79565980999996l-163.44146388 163.43866676c-6.8641387 6.86973294-18.00563717 6.86973294-24.87033531 0-6.87029237-6.8641387-6.87029237-18.00563717 0-24.8703353l175.87635183-175.87635181c6.8641387-6.86973294 18.00563717-6.86973294 24.8703353 0l175.87579238 175.87635181c3.43486648 3.43262877 5.15285913 7.93431777 5.15285915 12.43488795s-1.71799266 9.00225917-5.15285915 12.43488792c-6.8641387 6.86973294-18.00563717 6.86973294-24.87033528 0l-163.44090448-163.43866676z"  horiz-adv-x="1024" />

    


  </font>
</defs>
</svg>
